<svg width="113" height="98" viewBox="0 0 113 98" fill="none" xmlns="http://www.w3.org/2000/svg">
<path d="M84.5503 0H28.1233L0 48.675L28.1233 97.35H84.37L112.493 48.675L84.5503 0ZM67.7845 76.7983L56.427 84.0094L44.5286 76.4378L43.6272 73.5533L56.427 66.1619L68.8661 73.5533L67.7845 76.7983ZM74.8153 57.1481L67.0633 52.6411V40.9231L73.7336 33.7119H65.4408V53.7228L74.2745 59.1311L69.7675 71.9308L56.9678 64.3592L65.2606 56.4269H47.4131L55.5256 64.3592L42.9061 71.9308L38.5794 59.1311L47.0525 54.0833V33.7119H38.7597L45.7906 40.9231V52.6411L37.8583 57.6889L30.1064 35.5147L40.3822 18.0278H72.1111L82.5672 35.3344L74.8153 57.1481Z" fill="black"/>
<path d="M84.5503 0H28.1233L0 48.675L28.1233 97.35H84.37L112.493 48.675L84.5503 0ZM67.7845 76.7983L56.427 84.0094L44.5286 76.4378L43.6272 73.5533L56.427 66.1619L68.8661 73.5533L67.7845 76.7983ZM74.8153 57.1481L67.0633 52.6411V40.9231L73.7336 33.7119H65.4408V53.7228L74.2745 59.1311L69.7675 71.9308L56.9678 64.3592L65.2606 56.4269H47.4131L55.5256 64.3592L42.9061 71.9308L38.5794 59.1311L47.0525 54.0833V33.7119H38.7597L45.7906 40.9231V52.6411L37.8583 57.6889L30.1064 35.5147L40.3822 18.0278H72.1111L82.5672 35.3344L74.8153 57.1481Z" fill="black"/>
</svg>
